<svg width="20" height="20" viewBox="0 0 20 20" fill="none" xmlns="http://www.w3.org/2000/svg">
<path d="M10.25 9.25V9.75H10.75H14.2427C14.3807 9.75 14.4927 9.86193 14.4927 10C14.4927 10.1381 14.3807 10.25 14.2427 10.25H10.75H10.25V10.75V14.2426C10.25 14.3807 10.1381 14.4926 10 14.4926C9.86193 14.4926 9.75 14.3807 9.75 14.2426V10.75V10.25H9.25H5.75739C5.61931 10.25 5.50739 10.1381 5.50739 10C5.50739 9.86193 5.61931 9.75 5.75739 9.75H9.25H9.75V9.25V5.75735C9.75 5.61928 9.86193 5.50735 10 5.50735C10.1381 5.50735 10.25 5.61928 10.25 5.75735V9.25ZM14.711 1.52031C11.605 1.17316 8.39497 1.17316 5.28897 1.52031C3.34903 1.73712 1.7809 3.2649 1.5523 5.21945C1.18081 8.39566 1.18081 11.6043 1.5523 14.7806C1.7809 16.7351 3.34903 18.2629 5.28896 18.4797C8.39497 18.8268 11.605 18.8268 14.711 18.4797C16.6509 18.2629 18.2191 16.7351 18.4477 14.7806C18.8192 11.6044 18.8192 8.39566 18.4477 5.21945C18.2191 3.2649 16.6509 1.73712 14.711 1.52031Z" fill="#384CFF" stroke="white"/>
</svg>
