<svg width="30" height="30" viewBox="0 0 30 30" fill="none" xmlns="http://www.w3.org/2000/svg">
<rect width="30" height="30" rx="10" fill="#EEEEEE"/>
<path d="M13.17 15.1368C13.17 13.801 14.2132 12.7182 15.5 12.7182C16.7868 12.7182 17.83 13.801 17.83 15.1368C17.83 16.4725 16.7868 17.5553 15.5 17.5553C14.2132 17.5553 13.17 16.4725 13.17 15.1368Z" fill="black"/>
<path fill-rule="evenodd" clip-rule="evenodd" d="M10.8128 9.37786C10.8128 7.51232 12.2697 6 14.0669 6H16.9331C18.7303 6 20.1872 7.51232 20.1872 9.37786C20.1872 9.39381 20.199 9.40709 20.2143 9.40838L22.5232 9.60302C23.5574 9.69021 24.408 10.4841 24.601 11.5424C25.0936 14.2429 25.1304 17.0117 24.7096 19.7253L24.6089 20.3747C24.4191 21.5989 23.4484 22.5303 22.2577 22.6307L20.2463 22.8003C17.0873 23.0666 13.9127 23.0666 10.7537 22.8003L8.7423 22.6307C7.55164 22.5303 6.58095 21.5989 6.39111 20.3747L6.29041 19.7253C5.86963 17.0117 5.90636 14.2429 6.39896 11.5423C6.592 10.4841 7.44256 9.69021 8.47679 9.60302L10.7857 9.40838C10.801 9.40709 10.8128 9.39381 10.8128 9.37786ZM15.5 11.1058C13.3553 11.1058 11.6167 12.9105 11.6167 15.1368C11.6167 17.363 13.3553 19.1677 15.5 19.1677C17.6447 19.1677 19.3833 17.363 19.3833 15.1368C19.3833 12.9105 17.6447 11.1058 15.5 11.1058Z" fill="black"/>
</svg>
