<svg width="15" height="15" viewBox="0 0 15 15" fill="none" xmlns="http://www.w3.org/2000/svg">
<path fill-rule="evenodd" clip-rule="evenodd" d="M3.73967 2.3235V3.50189C3.45344 3.52356 3.16735 3.54772 2.88143 3.57435C1.74073 3.68059 0.851114 4.73881 0.740783 5.87749C0.728133 6.00805 0.83558 6.11464 0.966748 6.11464H14.0334C14.1646 6.11464 14.272 6.00805 14.2594 5.87749C14.149 4.73881 13.2594 3.68059 12.1187 3.57435C11.8328 3.54772 11.5467 3.52357 11.2605 3.50189V2.3235C11.2605 1.63772 10.7588 1.05514 10.0806 0.953407L9.11484 0.808543C8.04433 0.647966 6.95585 0.647966 5.88534 0.808543L4.91958 0.953408C4.24139 1.05514 3.73967 1.63772 3.73967 2.3235ZM8.93868 1.9829C7.98496 1.83985 7.01522 1.83985 6.0615 1.9829L5.09573 2.12777C4.99885 2.1423 4.92717 2.22553 4.92717 2.3235V3.42623C6.6413 3.33756 8.35888 3.33756 10.073 3.42623V2.3235C10.073 2.22553 10.0013 2.1423 9.90445 2.12777L8.93868 1.9829Z" fill="url(#paint0_linear_3167_600)"/>
<path fill-rule="evenodd" clip-rule="evenodd" d="M14.2709 7.53964C14.2709 7.40847 14.1646 7.30214 14.0334 7.30214H0.966747C0.835579 7.30214 0.729248 7.40847 0.729248 7.53964V12.2305C0.729248 13.4554 1.66183 14.4788 2.88143 14.5924C5.95388 14.8786 9.04628 14.8786 12.1187 14.5924C13.3383 14.4788 14.2709 13.4554 14.2709 12.2305V7.53964ZM5.52092 10.073C5.193 10.073 4.92717 10.3388 4.92717 10.6667C4.92717 10.9946 5.193 11.2605 5.52092 11.2605H6.90634V12.6459C6.90634 12.9738 7.17217 13.2396 7.50009 13.2396C7.82801 13.2396 8.09384 12.9738 8.09384 12.6459V11.2605H9.47926C9.80718 11.2605 10.073 10.9946 10.073 10.6667C10.073 10.3388 9.80718 10.073 9.47926 10.073H8.09384V8.68756C8.09384 8.35964 7.82801 8.09381 7.50009 8.09381C7.17217 8.09381 6.90634 8.35964 6.90634 8.68756V10.073H5.52092Z" fill="url(#paint1_linear_3167_600)"/>
<defs>
<linearGradient id="paint0_linear_3167_600" x1="7.50008" y1="0.68811" x2="7.50008" y2="14.8071" gradientUnits="userSpaceOnUse">
<stop stop-color="#384CFF"/>
<stop offset="1" stop-color="#00A3FF"/>
</linearGradient>
<linearGradient id="paint1_linear_3167_600" x1="7.50008" y1="0.68811" x2="7.50008" y2="14.8071" gradientUnits="userSpaceOnUse">
<stop stop-color="#384CFF"/>
<stop offset="1" stop-color="#00A3FF"/>
</linearGradient>
</defs>
</svg>
