<svg width="17" height="16" viewBox="0 0 17 16" fill="none" xmlns="http://www.w3.org/2000/svg">
<path d="M4.62734 1.5C4.62734 1.13756 4.33353 0.84375 3.97109 0.84375C3.60866 0.84375 3.31484 1.13756 3.31484 1.5V3.08937C2.0084 3.27407 0.976297 4.3074 0.801579 5.62548L0.725847 6.19682C0.713007 6.29368 0.70073 6.3906 0.689014 6.48757C0.657938 6.74479 0.860592 6.96875 1.11969 6.96875H15.5724C15.8315 6.96875 16.0342 6.74479 16.0031 6.48757C15.9914 6.3906 15.9791 6.29368 15.9663 6.19681L15.8906 5.62548C15.7158 4.30741 14.6838 3.2741 13.3773 3.08938V1.5C13.3773 1.13756 13.0835 0.84375 12.7211 0.84375C12.3587 0.84375 12.0648 1.13756 12.0648 1.5V2.95918C9.59058 2.73883 7.10161 2.73883 4.62734 2.95917V1.5Z" fill="url(#paint0_linear_3167_529)"/>
<path d="M16.1726 8.69736C16.1649 8.46423 15.9723 8.28125 15.739 8.28125H0.9531C0.71985 8.28125 0.527205 8.46423 0.519545 8.69736C0.467571 10.2791 0.563648 11.864 0.80754 13.4314C0.992173 14.6179 1.95612 15.5293 3.15115 15.6471L4.19503 15.7501C6.95569 16.0223 9.73644 16.0223 12.4971 15.7501L13.541 15.6471C14.736 15.5293 15.7 14.6179 15.8846 13.4314C16.1285 11.864 16.2246 10.2791 16.1726 8.69736Z" fill="url(#paint1_linear_3167_529)"/>
<defs>
<linearGradient id="paint0_linear_3167_529" x1="8.34607" y1="0.84375" x2="8.34607" y2="15.9543" gradientUnits="userSpaceOnUse">
<stop stop-color="#384CFF"/>
<stop offset="1" stop-color="#00A3FF"/>
</linearGradient>
<linearGradient id="paint1_linear_3167_529" x1="8.34607" y1="0.84375" x2="8.34607" y2="15.9543" gradientUnits="userSpaceOnUse">
<stop stop-color="#384CFF"/>
<stop offset="1" stop-color="#00A3FF"/>
</linearGradient>
</defs>
</svg>
