<svg width="18" height="18" viewBox="0 0 18 18" fill="none" xmlns="http://www.w3.org/2000/svg">
<path d="M14.2163 2.32927C14.436 2.1096 14.436 1.75344 14.2163 1.53377C13.9966 1.3141 13.6405 1.3141 13.4208 1.53377L12.8905 2.0641C12.5189 2.43568 12.5379 3.01308 12.8621 3.37481C15.039 5.80388 14.96 9.54053 12.6253 11.8752C11.4178 13.0827 9.83525 13.6868 8.25254 13.6875L8.25011 13.6875L8.24782 13.6875C6.77202 13.687 5.29641 13.1618 4.12494 12.112C3.7632 11.7878 3.1858 11.7688 2.81422 12.1404L2.28389 12.6707C2.06422 12.8904 2.06422 13.2465 2.28389 13.4662C2.50356 13.6859 2.85972 13.6859 3.07939 13.4662L3.49222 13.0534C4.70706 14.0963 6.18291 14.6755 7.68761 14.7909V15.9375H6.37511C6.06445 15.9375 5.81261 16.1893 5.81261 16.5C5.81261 16.8106 6.06445 17.0625 6.37511 17.0625H10.1251C10.4358 17.0625 10.6876 16.8106 10.6876 16.5C10.6876 16.1893 10.4358 15.9375 10.1251 15.9375H8.81261V14.791C10.4924 14.6622 12.1361 13.9554 13.4208 12.6707C16.1427 9.94881 16.2702 5.61541 13.8035 2.7421L14.2163 2.32927Z" fill="url(#paint0_linear_144_1651)"/>
<path fill-rule="evenodd" clip-rule="evenodd" d="M3.37511 7.49998C3.37511 4.8076 5.55772 2.62498 8.25011 2.62498C10.9425 2.62498 13.1251 4.8076 13.1251 7.49998C13.1251 10.1924 10.9425 12.375 8.25011 12.375C5.55772 12.375 3.37511 10.1924 3.37511 7.49998ZM9.75011 4.68748C8.61102 4.68748 7.68761 5.6109 7.68761 6.74998C7.68761 7.88907 8.61102 8.81248 9.75011 8.81248C10.8892 8.81248 11.8126 7.88907 11.8126 6.74998C11.8126 5.6109 10.8892 4.68748 9.75011 4.68748ZM4.68761 9.37498C4.68761 8.85722 5.10734 8.43748 5.62511 8.43748C6.14287 8.43748 6.56261 8.85722 6.56261 9.37498C6.56261 9.89275 6.14287 10.3125 5.62511 10.3125C5.10734 10.3125 4.68761 9.89275 4.68761 9.37498Z" fill="url(#paint1_linear_144_1651)"/>
<defs>
<linearGradient id="paint0_linear_144_1651" x1="8.84087" y1="1.36902" x2="8.84087" y2="17.0625" gradientUnits="userSpaceOnUse">
<stop stop-color="#384CFF"/>
<stop offset="1" stop-color="#00A3FF"/>
</linearGradient>
<linearGradient id="paint1_linear_144_1651" x1="8.84087" y1="1.36902" x2="8.84087" y2="17.0625" gradientUnits="userSpaceOnUse">
<stop stop-color="#384CFF"/>
<stop offset="1" stop-color="#00A3FF"/>
</linearGradient>
</defs>
</svg>
