<svg width="26" height="23" viewBox="0 0 26 23" fill="none" xmlns="http://www.w3.org/2000/svg">
<path d="M17.7128 1.31848C15.7655 1.31848 16.1635 3.35937 16.1635 5.77869C16.1635 8.198 15.7655 10.0796 17.7128 10.0796C19.6602 10.0796 21.2389 8.11836 21.2389 5.69904C21.2389 3.27972 19.6602 1.31848 17.7128 1.31848Z" stroke="black" stroke-linecap="round" stroke-linejoin="round"/>
<path d="M18.2257 13.4248C17.9251 13.8453 17.9251 13.8453 18.0548 15.4084V16.7965C18.0548 17.6763 17.8687 20.2919 18.5677 20.4337C19.5934 20.4337 19.8289 20.4337 23.7877 19.9564C24.7222 19.9564 25 19.0644 25 18.1846V16.7965C25 14.3771 23.4214 12.4159 21.474 12.4159H21.1535C20.98 12.4159 20.8076 12.45 20.6427 12.5169L19.8289 12.847C18.4539 13.4048 18.0548 13.6082 18.1003 13.6082C17.9354 13.5413 18.3992 13.4248 18.2257 13.4248Z" stroke="black" stroke-linecap="round" stroke-linejoin="round"/>
<path d="M8.9496 1C6.82519 1 5.10302 3.13954 5.10302 5.77879C5.10302 8.41805 6.82519 10.5576 8.9496 10.5576C11.074 10.5576 12.7962 8.41805 12.7962 5.77879C12.7962 3.13954 11.074 1 8.9496 1Z" stroke="black" stroke-linecap="round" stroke-linejoin="round"/>
<path d="M4.84658 13.1063C2.72217 13.1063 1 15.2458 1 17.8851V19.3994C1 20.3592 1.55994 21.1777 2.32248 21.3323C6.71151 22.2226 11.1877 22.2226 15.5767 21.3323C16.3393 21.1777 16.8992 20.3592 16.8992 19.3994V17.8851C16.8992 15.2458 15.177 13.1063 13.0526 13.1063H12.703C12.5137 13.1063 12.3257 13.1435 12.1458 13.2164L11.258 13.5766C9.75803 14.1851 8.14118 14.1851 6.64123 13.5766L5.75342 13.2164C5.57353 13.1435 5.38547 13.1063 5.19623 13.1063H4.84658Z" stroke="black" stroke-linecap="round" stroke-linejoin="round"/>
</svg>
