<svg width="19" height="17" viewBox="0 0 19 17" fill="none" xmlns="http://www.w3.org/2000/svg">
<path fill-rule="evenodd" clip-rule="evenodd" d="M19 8.5C19 7.88768 18.5884 7.3913 18.0806 7.3913H0.919355C0.411609 7.3913 0 7.88768 0 8.5C0 9.11232 0.411609 9.6087 0.919355 9.6087H18.0806C18.5884 9.6087 19 9.11232 19 8.5Z" fill="black"/>
<path fill-rule="evenodd" clip-rule="evenodd" d="M19 1.1087C19 0.49638 18.5884 0 18.0806 0H0.919355C0.411609 0 0 0.49638 0 1.1087C0 1.72101 0.411609 2.21739 0.919355 2.21739H18.0806C18.5884 2.21739 19 1.72101 19 1.1087Z" fill="black"/>
<path fill-rule="evenodd" clip-rule="evenodd" d="M19 15.8913C19 15.279 18.5884 14.7826 18.0806 14.7826H0.919355C0.411609 14.7826 0 15.279 0 15.8913C0 16.5036 0.411609 17 0.919355 17H18.0806C18.5884 17 19 16.5036 19 15.8913Z" fill="black"/>
</svg>
