<svg width="14" height="14" viewBox="0 0 14 14" fill="none" xmlns="http://www.w3.org/2000/svg">
<circle cx="7" cy="7" r="6.5" fill="#FF0000" stroke="white"/>
<path d="M6.92371 9.71838C7.9696 9.71838 8.7113 9.11682 8.7113 8.27258V8.26575C8.7113 7.57532 8.22595 7.13782 7.50134 7.07288V7.05579C8.10291 6.92932 8.54041 6.51917 8.54041 5.90735V5.90051C8.54041 5.14172 7.89783 4.62219 6.91687 4.62219C5.953 4.62219 5.29675 5.16565 5.22156 5.98938L5.21814 6.02356H5.93591L5.93933 5.9928C5.98718 5.53479 6.37 5.24768 6.91687 5.24768C7.474 5.24768 7.79529 5.52454 7.79529 5.99963V6.00647C7.79529 6.46448 7.41248 6.79602 6.84851 6.79602H6.27087V7.39075H6.86902C7.52869 7.39075 7.93201 7.70178 7.93201 8.25891V8.26575C7.93201 8.74426 7.52527 9.07922 6.92371 9.07922C6.31189 9.07922 5.89832 8.77161 5.85046 8.33411L5.84705 8.29651H5.11218L5.1156 8.34094C5.18396 9.14417 5.87097 9.71838 6.92371 9.71838Z" fill="white"/>
</svg>
