<svg width="14" height="14" viewBox="0 0 14 14" fill="none" xmlns="http://www.w3.org/2000/svg">
<circle cx="7" cy="7" r="6.5" fill="#FF0000" stroke="white"/>
<path d="M6.64148 4.56433C5.599 4.56433 4.83679 5.27185 4.83679 6.25623V6.26306C4.83679 7.19617 5.52039 7.88318 6.46375 7.88318C7.13367 7.88318 7.63269 7.53455 7.82751 7.09021H7.8446C7.8446 7.13464 7.8446 7.17908 7.84119 7.22351C7.81042 8.20105 7.46521 9.01794 6.61755 9.01794C6.14587 9.01794 5.82458 8.78552 5.68445 8.41638L5.67078 8.3822H4.90515L4.91541 8.42322C5.07263 9.15808 5.7323 9.66052 6.61072 9.66052C7.8446 9.66052 8.57947 8.68982 8.57947 7.04578V7.03894C8.57947 5.26501 7.64978 4.56433 6.64148 4.56433ZM6.63806 7.26111C6.03992 7.26111 5.599 6.83728 5.599 6.24255V6.23572C5.599 5.6615 6.06726 5.20691 6.64832 5.20691C7.23621 5.20691 7.69421 5.66833 7.69421 6.25281V6.25623C7.69421 6.8407 7.23962 7.26111 6.63806 7.26111Z" fill="white"/>
</svg>
