<svg width="22" height="17" viewBox="0 0 22 17" fill="none" xmlns="http://www.w3.org/2000/svg">
<path d="M8.49816 9.02927C8.49816 7.70926 9.6182 6.63917 10.9998 6.63917C12.3815 6.63917 13.5015 7.70926 13.5015 9.02927C13.5015 10.3493 12.3815 11.4194 10.9998 11.4194C9.6182 11.4194 8.49816 10.3493 8.49816 9.02927Z" fill="black"/>
<path fill-rule="evenodd" clip-rule="evenodd" d="M5.9672 3.33812C5.9672 1.49453 7.53149 0 9.46115 0H12.5385C14.4681 0 16.0324 1.49453 16.0324 3.33812C16.0324 3.35388 16.0451 3.36701 16.0615 3.36828L18.5405 3.56063C19.651 3.64679 20.5642 4.43132 20.7715 5.47715C21.3003 8.14589 21.3398 10.8821 20.888 13.5638L20.7799 14.2056C20.5761 15.4154 19.5338 16.3359 18.2554 16.4351L16.0959 16.6026C12.7041 16.8658 9.29554 16.8658 5.90375 16.6026L3.74416 16.4351C2.46577 16.3359 1.42356 15.4154 1.21974 14.2056L1.11161 13.5638C0.659828 10.8821 0.699265 8.14589 1.22816 5.47715C1.43542 4.43132 2.34866 3.64679 3.4591 3.56063L5.93809 3.36828C5.95454 3.36701 5.9672 3.35388 5.9672 3.33812ZM10.9998 5.04577C8.69711 5.04577 6.83038 6.82925 6.83038 9.02927C6.83038 11.2293 8.69711 13.0128 10.9998 13.0128C13.3026 13.0128 15.1693 11.2293 15.1693 9.02927C15.1693 6.82925 13.3026 5.04577 10.9998 5.04577Z" fill="black"/>
</svg>
