<svg width="12" height="16" viewBox="0 0 12 16" fill="none" xmlns="http://www.w3.org/2000/svg">
<path d="M9.59623 0.654634C7.32128 0.273244 4.98644 0.273244 2.71148 0.654634C1.88036 0.793969 1.21847 1.43203 1.05183 2.25934C0.288396 6.04941 0.246741 9.94948 0.929049 13.755L1.20684 15.3044C1.2925 15.7821 1.87492 15.9731 2.2268 15.6388L5.5799 12.4533C5.90154 12.1478 6.40618 12.1478 6.72782 12.4533L10.0809 15.6388C10.4328 15.9731 11.0152 15.7821 11.1009 15.3044L11.3787 13.755C12.061 9.94948 12.0193 6.04941 11.2559 2.25934C11.0892 1.43202 10.4274 0.793969 9.59623 0.654634Z" fill="url(#paint0_linear_3167_137)"/>
<defs>
<linearGradient id="paint0_linear_3167_137" x1="6.15386" y1="0.368591" x2="6.15386" y2="15.807" gradientUnits="userSpaceOnUse">
<stop stop-color="#384CFF"/>
<stop offset="1" stop-color="#00A3FF"/>
</linearGradient>
</defs>
</svg>
