<svg width="22" height="22" viewBox="0 0 22 22" fill="none" xmlns="http://www.w3.org/2000/svg">
<path d="M7.75012 11C7.75012 9.20508 9.2052 7.75001 11.0001 7.75001C12.795 7.75001 14.2501 9.20508 14.2501 11C14.2501 12.7949 12.795 14.25 11.0001 14.25C9.2052 14.25 7.75012 12.7949 7.75012 11Z" fill="#555555"/>
<path fill-rule="evenodd" clip-rule="evenodd" d="M10.4608 0.838522C10.7557 0.533481 11.2446 0.533481 11.5394 0.838522L14.1117 3.50001H17.7501C18.1643 3.50001 18.5001 3.83579 18.5001 4.25001V7.8884L21.1616 10.4607C21.4667 10.7555 21.4667 11.2445 21.1616 11.5393L18.5001 14.1116V17.75C18.5001 18.1642 18.1643 18.5 17.7501 18.5H14.1117L11.5394 21.1615C11.2446 21.4665 10.7557 21.4665 10.4608 21.1615L7.88852 18.5H4.25013C3.83592 18.5 3.50013 18.1642 3.50013 17.75V14.1116L0.838644 11.5393C0.533603 11.2445 0.533603 10.7555 0.838643 10.4607L3.50013 7.8884V4.25001C3.50013 3.83579 3.83592 3.50001 4.25013 3.50001H7.88852L10.4608 0.838522ZM11.0001 6.25001C8.37677 6.25001 6.25012 8.37666 6.25012 11C6.25012 13.6234 8.37677 15.75 11.0001 15.75C13.6235 15.75 15.7501 13.6234 15.7501 11C15.7501 8.37666 13.6235 6.25001 11.0001 6.25001Z" fill="#555555"/>
</svg>
