<svg width="17" height="4" viewBox="0 0 17 4" fill="none" xmlns="http://www.w3.org/2000/svg">
<path d="M1.7 3.86365C0.761116 3.86365 0 2.99874 0 1.93183C0 0.864915 0.761116 1.04904e-05 1.7 1.04904e-05C2.63888 1.04904e-05 3.4 0.864915 3.4 1.93183C3.4 2.99874 2.63888 3.86365 1.7 3.86365Z" fill="#CCCCCC"/>
<path d="M6.8 1.93183C6.8 2.99874 7.56112 3.86365 8.5 3.86365C9.43888 3.86365 10.2 2.99874 10.2 1.93183C10.2 0.864915 9.43888 1.04904e-05 8.5 1.04904e-05C7.56112 1.04904e-05 6.8 0.864915 6.8 1.93183Z" fill="#CCCCCC"/>
<path d="M13.6 1.93183C13.6 2.99874 14.3611 3.86365 15.3 3.86365C16.2389 3.86365 17 2.99874 17 1.93183C17 0.864915 16.2389 1.04904e-05 15.3 1.04904e-05C14.3611 1.04904e-05 13.6 0.864915 13.6 1.93183Z" fill="#CCCCCC"/>
</svg>
